<?xml version="1.0" encoding="UTF-8"?>
<svg xmlns="http://www.w3.org/2000/svg" xmlns:xlink="http://www.w3.org/1999/xlink" width="24px" height="24px" viewBox="0 0 24 24" version="1.1">
  <title>聊天</title>
  <g id="页面-1" stroke="none" stroke-width="1" fill="none" fill-rule="evenodd">
    <g id="[CP商务]-制作与交付-提示/备注Hover" transform="translate(-384.000000, -691.000000)">
      <g id="编组-9" transform="translate(88.000000, 224.000000)">
        <g id="编组-9备份" transform="translate(0.000000, 305.000000)">
          <g id="表格/内容列/基础备份-22" transform="translate(80.000000, 130.000000)">
            <g id="编组-27" transform="translate(200.000000, 0.000000)">
              <g id="聊天" transform="translate(16.000000, 32.000000)">
                <rect id="矩形" fill="#D8D8D8" opacity="0" x="0" y="0" width="24" height="24"></rect>
                <path d="M1.87415639,21.9129685 L2.74258841,17.4035364 C1.63977404,15.8453119 1,13.9905774 1,12 C1,6.4771525 5.92486775,2 12,2 C18.0751322,2 23,6.4771525 23,12 C23,17.5228475 18.0751322,22 12,22 C9.8089687,22 7.76755524,21.4176453 6.05283162,20.4139105 L1.87415639,21.9129685 Z" id="形状结合" stroke="#0052D9" stroke-width="2"></path>
                <g id="编组-5" transform="translate(6.000000, 10.500000)" fill="#0052D9">
                  <circle id="椭圆形" cx="1.5" cy="1.5" r="1.5"></circle>
                  <circle id="椭圆形备份" cx="6.5" cy="1.5" r="1.5"></circle>
                  <circle id="椭圆形备份-2" cx="11.5" cy="1.5" r="1.5"></circle>
                </g>
                <rect id="codesign_placeholder_name" x="0" y="0" width="24" height="24"></rect>
              </g>
            </g>
          </g>
        </g>
      </g>
    </g>
  </g>
</svg>
