<?xml version="1.0" encoding="UTF-8"?>
<svg width="16px" height="16px" viewBox="0 0 16 16" version="1.1" xmlns="http://www.w3.org/2000/svg" xmlns:xlink="http://www.w3.org/1999/xlink">
    <title>icon/延时提醒</title>
    <g id="页面-1" stroke="none" stroke-width="1" fill-rule="evenodd">
        <g id="核价" transform="translate(-454.000000, -256.000000)">
            <g id="编组-9" transform="translate(88.000000, 224.000000)">
                <g id="按钮/跟随按钮/中尺寸备份" transform="translate(354.000000, 24.000000)">
                    <g id="icon/延时提醒" transform="translate(12.000000, 8.000000)">
                        <rect id="矩形" fill="#D8D8D8" opacity="0" x="0" y="0" width="16" height="16"></rect>
                        <path d="M8,1.5 C9.88033094,1.5 11.6321111,2.30350349 12.8576572,3.68097299 C13.0412106,3.88728041 13.0227648,4.20332507 12.8164574,4.3868785 C12.61015,4.57043193 12.2941053,4.55198617 12.1105519,4.34567875 C11.0728188,3.17930428 9.591815,2.5 8,2.5 C4.96243388,2.5 2.5,4.96243388 2.5,8 C2.5,11.0375661 4.96243388,13.5 8,13.5 C10.6650051,13.5 12.9333878,11.5907903 13.4092415,9.0008689 L13,9 C12.8619288,9 12.75,8.88807119 12.75,8.75 C12.75,8.69590745 12.7675445,8.64327404 12.8,8.6 L13.8,7.26666667 C13.8828427,7.15620972 14.0395431,7.13382395 14.15,7.21666667 C14.1689514,7.23088023 14.1857864,7.24771525 14.2,7.26666667 L15.2,8.6 C15.2828427,8.71045695 15.2604569,8.86715729 15.15,8.95 C15.106726,8.98245553 15.0540926,9 15,9 L14.3951659,9.00014127 C14.4047991,9.05631752 14.4049183,9.11510827 14.3940865,9.17443449 C13.834275,12.2405342 11.1521955,14.5 8,14.5 C4.41014913,14.5 1.5,11.5898509 1.5,8 C1.5,4.41014913 4.41014913,1.5 8,1.5 Z M7.5,4.5 C7.77614237,4.5 8,4.72385763 8,5 L8,8.499 L10.5,8.5 C10.7761424,8.5 11,8.72385763 11,9 C11,9.27614237 10.7761424,9.5 10.5,9.5 L7.51031763,9.49989566 C7.50688679,9.49996511 7.50344747,9.5 7.5,9.5 C7.22385763,9.5 7,9.27614237 7,9 L7,5 C7,4.72385763 7.22385763,4.5 7.5,4.5 Z" id="形状结合" fill-opacity="0.9" fill-rule="nonzero"></path>
                    </g>
                </g>
            </g>
        </g>
    </g>
</svg>