<?xml version="1.0" encoding="UTF-8"?>
<svg xmlns="http://www.w3.org/2000/svg" xmlns:xlink="http://www.w3.org/1999/xlink" width="16px" height="16px"
  viewBox="0 0 16 16" version="1.1">
  <title>icon-结束</title>
  <g id="页面-1" stroke="none" stroke-width="1" fill-rule="evenodd">
    <g id="[CP商务]-制作与交付" transform="translate(-236.000000, -406.000000)">
      <g id="编组-9" transform="translate(88.000000, 374.000000)">
        <g id="按钮/跟随按钮/中尺寸备份-2" transform="translate(136.000000, 24.000000)">
          <g id="编组-15" transform="translate(12.000000, 6.000000)">
            <g id="icon-结束" transform="translate(0.000000, 2.000000)">
              <rect id="矩形" opacity="0" x="0" y="0" width="16" height="16"></rect>
              <path
                d="M11,1.5 C11.2761424,1.5 11.5,1.72385763 11.5,2 C11.5,2.24545989 11.3231248,2.44960837 11.0898756,2.49194433 L11,2.5 L3,2.5 C2.75454011,2.5 2.55039163,2.67687516 2.50805567,2.91012437 L2.5,3 L2.5,13 C2.5,13.2454599 2.67687516,13.4496084 2.91012437,13.4919443 L3,13.5 L11,13.5 C11.2761424,13.5 11.5,13.7238576 11.5,14 C11.5,14.2454599 11.3231248,14.4496084 11.0898756,14.4919443 L11,14.5 L3,14.5 C2.22030388,14.5 1.57955132,13.9051119 1.50686658,13.14446 L1.5,13 L1.5,3 C1.5,2.22030388 2.09488808,1.57955132 2.85553999,1.50686658 L3,1.5 L11,1.5 Z"
                id="路径" fill-rule="nonzero"></path>
              <rect id="矩形" x="7" y="7.5" width="8" height="1" rx="0.5"></rect>
              <path
                d="M10,5.5 C10.2761424,5.5 10.5,5.72385763 10.5,6 L10.499,9.499 L14,9.5 C14.2761424,9.5 14.5,9.72385763 14.5,10 C14.5,10.2761424 14.2761424,10.5 14,10.5 L10.0102033,10.499898 C10.0068104,10.4999659 10.0034092,10.5 10,10.5 C9.72385763,10.5 9.5,10.2761424 9.5,10 L9.5,6 C9.5,5.72385763 9.72385763,5.5 10,5.5 Z"
                id="形状结合"
                transform="translate(12.000000, 8.000000) rotate(-135.000000) translate(-12.000000, -8.000000) "></path>
            </g>
          </g>
        </g>
      </g>
    </g>
  </g>
</svg>