<?xml version="1.0" encoding="UTF-8"?>
<svg xmlns="http://www.w3.org/2000/svg" xmlns:xlink="http://www.w3.org/1999/xlink" width="32px" height="32px"
  viewBox="0 0 32 32" version="1.1" preserveAspectRatio="none meet">
  <title>icon-字段</title>
  <g id="页面-1" stroke="none" stroke-width="1" fill="none" fill-rule="evenodd">
    <g id="[CP商务]-制作与交付" transform="translate(-1840.000000, -398.000000)">
      <g id="编组-9" transform="translate(88.000000, 374.000000)">
        <g id="icon-字段" transform="translate(1752.000000, 24.000000)">
          <rect id="Rectangle" fill="#D0E4FF" opacity="0" x="0" y="0" width="32" height="32" rx="3"></rect>
          <path
            d="M17.4569288,6.80940489 L23.4569288,10.1427382 C24.4093243,10.6718469 25,11.6757087 25,12.76521 L25,19.23479 C25,20.3242913 24.4093243,21.3281531 23.4569288,21.8572618 L17.4569288,25.1905951 C16.5508612,25.693966 15.4491388,25.693966 14.5430712,25.1905951 L8.54307121,21.8572618 C7.59067565,21.3281531 7,20.3242913 7,19.23479 L7,12.76521 C7,11.6757087 7.59067565,10.6718469 8.54307121,10.1427382 L14.5430712,6.80940489 C15.4491388,6.30603399 16.5508612,6.30603399 17.4569288,6.80940489 Z"
            id="多边形" stroke-opacity="0.9" stroke="#000000" stroke-width="2"></path>
          <circle id="椭圆形" stroke-opacity="0.9" stroke="#000000" stroke-width="2" cx="16" cy="16" r="3.5"></circle>
        </g>
      </g>
    </g>
  </g>
</svg>