<?xml version="1.0" encoding="UTF-8"?>
<svg width="16px" height="16px" viewBox="0 0 16 16" version="1.1" xmlns="http://www.w3.org/2000/svg" xmlns:xlink="http://www.w3.org/1999/xlink">
    <title>icon/重新询价</title>
    <g id="页面-1" stroke="none" stroke-width="1" fill="none" fill-rule="evenodd">
        <g id="核价" transform="translate(-342.000000, -256.000000)">
            <g id="编组-9" transform="translate(88.000000, 224.000000)">
                <g id="按钮/跟随按钮/中尺寸" transform="translate(244.000000, 24.000000)">
                    <g id="icon/重新询价" transform="translate(10.000000, 8.000000)">
                        <rect id="矩形" fill="#D8D8D8" opacity="0" x="0" y="0" width="16" height="16"></rect>
                        <path d="M8,1.5 C9.88033094,1.5 11.6321111,2.30350349 12.8576572,3.68097299 C13.0412106,3.88728041 13.0227648,4.20332507 12.8164574,4.3868785 C12.61015,4.57043193 12.2941053,4.55198617 12.1105519,4.34567875 C11.0728188,3.17930428 9.591815,2.5 8,2.5 C4.96243388,2.5 2.5,4.96243388 2.5,8 C2.5,11.0375661 4.96243388,13.5 8,13.5 C10.6650051,13.5 12.9333878,11.5907903 13.4092415,9.0008689 L13,9 C12.8619288,9 12.75,8.88807119 12.75,8.75 C12.75,8.69590745 12.7675445,8.64327404 12.8,8.6 L13.8,7.26666667 C13.8828427,7.15620972 14.0395431,7.13382395 14.15,7.21666667 C14.1689514,7.23088023 14.1857864,7.24771525 14.2,7.26666667 L15.2,8.6 C15.2828427,8.71045695 15.2604569,8.86715729 15.15,8.95 C15.106726,8.98245553 15.0540926,9 15,9 L14.3951659,9.00014127 C14.4047991,9.05631752 14.4049183,9.11510827 14.3940865,9.17443449 C13.834275,12.2405342 11.1521955,14.5 8,14.5 C4.41014913,14.5 1.5,11.5898509 1.5,8 C1.5,4.41014913 4.41014913,1.5 8,1.5 Z M6.85355339,5.14644661 L7.914,6.207 L8.97487373,5.14644661 C9.17013588,4.95118446 9.48671837,4.95118446 9.68198052,5.14644661 C9.87724266,5.34170876 9.87724266,5.65829124 9.68198052,5.85355339 L8.534,7 L9.5,7 C9.77614237,7 10,7.22385763 10,7.5 C10,7.77614237 9.77614237,8 9.5,8 L8.5,8 L8.5,9 L9.5,9 C9.77614237,9 10,9.22385763 10,9.5 C10,9.77614237 9.77614237,10 9.5,10 L8.499,10 L8.5,11 C8.5,11.2761424 8.27614237,11.5 8,11.5 C7.72385763,11.5 7.5,11.2761424 7.5,11 L7.499,10 L6.5,10 C6.22385763,10 6,9.77614237 6,9.5 C6,9.22385763 6.22385763,9 6.5,9 L7.5,8.999 L7.5,7.999 L6.5,8 C6.22385763,8 6,7.77614237 6,7.5 C6,7.22385763 6.22385763,7 6.5,7 L7.292,6.999 L6.14644661,5.85355339 C5.95118446,5.65829124 5.95118446,5.34170876 6.14644661,5.14644661 C6.34170876,4.95118446 6.65829124,4.95118446 6.85355339,5.14644661 Z" id="形状结合" fill-opacity="0.9" fill="#000000" fill-rule="nonzero"></path>
                    </g>
                </g>
            </g>
        </g>
    </g>
</svg>