<?xml version="1.0" encoding="UTF-8"?>
<svg width="16px" height="16px" viewBox="0 0 16 16" version="1.1" xmlns="http://www.w3.org/2000/svg" xmlns:xlink="http://www.w3.org/1999/xlink">
    <title>icon/驳回</title>
    <g id="页面-1" stroke="none" stroke-width="1" fill-rule="evenodd">
        <g id="核价" transform="translate(-250.000000, -256.000000)">
            <g id="编组-9" transform="translate(88.000000, 224.000000)">
                <g id="按钮/跟随按钮/中尺寸备份-2" transform="translate(136.000000, 24.000000)">
                    <g id="编组-15" transform="translate(26.000000, 6.000000)">
                        <g id="icon/驳回" transform="translate(0.000000, 2.000000)">
                            <rect id="矩形" fill="#D8D8D8" opacity="0" x="0" y="0" width="16" height="16"></rect>
                            <path d="M8.34611277,6.51424499 C8.54137491,6.70950714 8.54137491,7.02608963 8.34611277,7.22135177 L7.066,8.501 L13.9887791,8.50012342 C13.9925095,8.50004128 13.9962499,8.5 14,8.5 C14.2454599,8.5 14.4496084,8.67687516 14.4919443,8.91012437 L14.5,9 L14.5,12 C14.5,13.3280227 13.4466047,14.4102418 12.1199751,14.4946945 L11.9527797,14.5 L10,14.5 C9.72385763,14.5 9.5,14.2761424 9.5,14 C9.5,13.7545401 9.67687516,13.5503916 9.91012437,13.5080557 L10,13.5 L11.9527797,13.5 C12.7622478,13.5 13.4228029,12.8986142 13.4936996,12.1361373 L13.5,12 L13.5,9.501 L7.09,9.501 L8.34611277,10.7568857 C8.54137491,10.9521478 8.54137491,11.2687303 8.34611277,11.4639925 C8.15085062,11.6592546 7.83426813,11.6592546 7.63900598,11.4639925 L5.51768564,9.34267212 C5.43090246,9.25588894 5.38268959,9.14514125 5.37304701,9.03173084 L5.37304701,8.94650661 C5.38268959,8.8330962 5.43090246,8.72234851 5.51768564,8.63556534 L7.63900598,6.51424499 C7.83426813,6.31898285 8.15085062,6.31898285 8.34611277,6.51424499 Z M12,1.5 C13.317283,1.5 14.4093826,2.4594538 14.494643,3.69086122 L14.5,3.84615385 L14.5,6.1606916 C14.5,6.43683398 14.2761424,6.6606916 14,6.6606916 C13.7545401,6.6606916 13.5503916,6.48381644 13.5080557,6.25056723 L13.5,6.1606916 L13.5,3.84615385 C13.5,3.15521231 12.9126786,2.57242583 12.1457953,2.50625352 L12,2.5 L4,2.5 C3.21226431,2.5 2.57860549,3.04214286 2.50678312,3.71796947 L2.5,3.84615385 L2.5,12.1538462 C2.5,12.8447877 3.08732143,13.4275742 3.8542047,13.4937465 L4,13.5 L6.9331842,13.5 C7.20932657,13.5 7.4331842,13.7238576 7.4331842,14 C7.4331842,14.2454599 7.25630904,14.4496084 7.02305983,14.4919443 L6.9331842,14.5 L4,14.5 C2.68271696,14.5 1.59061736,13.5405462 1.50535704,12.3091388 L1.5,12.1538462 L1.5,3.84615385 C1.5,2.59327719 2.53940828,1.58370833 3.83656899,1.50494742 L4,1.5 L12,1.5 Z" id="形状结合"></path>
                        </g>
                    </g>
                </g>
            </g>
        </g>
    </g>
</svg>