<?xml version="1.0" encoding="UTF-8"?>
<svg width="16px" height="16px" viewBox="0 0 16 16" version="1.1" xmlns="http://www.w3.org/2000/svg" xmlns:xlink="http://www.w3.org/1999/xlink">
    <title>icon/确认提交</title>
    <g id="页面-1" stroke="none" stroke-width="1">
        <g id="核价" transform="translate(-128.000000, -256.000000)">
            <g id="编组-9" transform="translate(88.000000, 224.000000)">
                <g id="编组-6" transform="translate(28.000000, 24.000000)">
                    <g id="icon/确认提交" transform="translate(12.000000, 8.000000)">
                        <rect id="矩形" fill="#D8D8D8" opacity="0" x="0" y="0" width="16" height="16"></rect>
                        <path d="M12,1 C13.3254834,1 14.4100387,2.03153594 14.4946823,3.33562431 L14.5,3.5 L14.5,12.5 C14.5,13.8254834 13.4684641,14.9100387 12.1643757,14.9946823 L12,15 L4,15 C2.6745166,15 1.58996133,13.9684641 1.50531768,12.6643757 L1.5,12.5 L1.5,3.5 C1.5,2.11928813 2.61928813,1 4,1 C4.27614237,1 4.5,1.22385763 4.5,1.5 C4.5,1.77614237 4.27614237,2 4,2 C3.22030388,2 2.57955132,2.59488808 2.50686658,3.35553999 L2.5,3.5 L2.5,12.5 C2.5,13.2796961 3.09488808,13.9204487 3.85553999,13.9931334 L4,14 L12,14 C12.7796961,14 13.4204487,13.4051119 13.4931334,12.64446 L13.5,12.5 L13.5,3.5 C13.5,2.67157288 12.8284271,2 12,2 C11.7238576,2 11.5,1.77614237 11.5,1.5 C11.5,1.22385763 11.7238576,1 12,1 Z M8.03771392,4.20647089 C8.15112433,4.21611347 8.26187202,4.26432634 8.3486552,4.35110952 L11.1770823,7.17953664 C11.3723445,7.37479879 11.3723445,7.69138128 11.1770823,7.88664342 C10.9818202,8.08190557 10.6652377,8.08190557 10.4699755,7.88664342 L8.5,5.917 L8.5,11.5 C8.5,11.7761424 8.27614237,12 8,12 C7.72385763,12 7.5,11.7761424 7.5,11.5 L7.5,5.905 L5.52022807,7.88664342 C5.32496593,8.08190557 5.00838344,8.08190557 4.81312129,7.88664342 C4.61785914,7.69138128 4.61785914,7.37479879 4.81312129,7.17953664 L7.64154842,4.35110952 C7.72833159,4.26432634 7.83907928,4.21611347 7.95248969,4.20647089 L8.03771392,4.20647089 Z M9.94385375,1 C10.2199961,1 10.4438537,1.22385763 10.4438537,1.5 C10.4438537,1.74545989 10.2669786,1.94960837 10.0337294,1.99194433 L9.94385375,2 L5.94385375,2 C5.66771137,2 5.44385375,1.77614237 5.44385375,1.5 C5.44385375,1.25454011 5.62072891,1.05039163 5.85397812,1.00805567 L5.94385375,1 L9.94385375,1 Z" id="形状结合"></path>
                    </g>
                </g>
            </g>
        </g>
    </g>
</svg>